<svg xmlns="http://www.w3.org/2000/svg" width="31.419" height="31.419" viewBox="0 0 31.419 31.419"><defs></defs><path class="a" fill="#67be83" d="M213.014,210.007A3.007,3.007,0,1,1,210.007,207,3.007,3.007,0,0,1,213.014,210.007Zm0,0" transform="translate(-194.297 -194.297)"></path><path class="a" fill="#67be83" d="M149.912,137.564a2.987,2.987,0,0,0-1.712-1.712,4.99,4.99,0,0,0-1.675-.31c-.951-.043-1.237-.053-3.645-.053s-2.694.009-3.645.052a4.993,4.993,0,0,0-1.675.311,2.988,2.988,0,0,0-1.712,1.712,4.992,4.992,0,0,0-.31,1.675c-.043.951-.053,1.236-.053,3.645s.009,2.694.053,3.645a4.99,4.99,0,0,0,.31,1.675,2.987,2.987,0,0,0,1.712,1.712,4.985,4.985,0,0,0,1.675.311c.951.043,1.236.052,3.645.052s2.694-.009,3.645-.052a4.985,4.985,0,0,0,1.675-.311,2.987,2.987,0,0,0,1.712-1.712,5,5,0,0,0,.311-1.675c.043-.951.053-1.237.053-3.645s-.009-2.694-.053-3.645A4.985,4.985,0,0,0,149.912,137.564Zm-7.032,9.952a4.632,4.632,0,1,1,4.632-4.632A4.632,4.632,0,0,1,142.88,147.516Zm4.815-8.365a1.083,1.083,0,1,1,1.083-1.082A1.083,1.083,0,0,1,147.7,139.151Zm0,0" transform="translate(-127.171 -127.174)"></path><path class="a" fill="#67be83" d="M15.709,0A15.709,15.709,0,1,0,31.419,15.709,15.711,15.711,0,0,0,15.709,0Zm8.966,19.428a6.618,6.618,0,0,1-.419,2.19,4.612,4.612,0,0,1-2.638,2.638,6.623,6.623,0,0,1-2.189.419c-.962.044-1.269.054-3.719.054s-2.757-.011-3.719-.054A6.623,6.623,0,0,1,9.8,24.256a4.612,4.612,0,0,1-2.638-2.638,6.617,6.617,0,0,1-.419-2.189c-.044-.962-.055-1.269-.055-3.719s.01-2.757.054-3.719A6.619,6.619,0,0,1,7.162,9.8,4.616,4.616,0,0,1,9.8,7.162a6.624,6.624,0,0,1,2.19-.419c.962-.044,1.269-.054,3.719-.054s2.757.011,3.719.055a6.626,6.626,0,0,1,2.19.419A4.614,4.614,0,0,1,24.256,9.8a6.618,6.618,0,0,1,.419,2.19c.044.962.054,1.269.054,3.719S24.72,18.467,24.676,19.428Zm0,0"></path></svg>