<svg xmlns="http://www.w3.org/2000/svg" width="31.419" height="31.419" viewBox="0 0 31.419 31.419"><defs></defs><path class="a" d="M15.709,0A15.709,15.709,0,1,0,31.419,15.709,15.711,15.711,0,0,0,15.709,0ZM11.144,23.748H7.318V12.238h3.826ZM9.232,10.666H9.207a1.994,1.994,0,1,1,.05-3.977,1.995,1.995,0,1,1-.025,3.977ZM24.94,23.748H21.115V17.59c0-1.548-.554-2.6-1.938-2.6a2.094,2.094,0,0,0-1.963,1.4,2.62,2.62,0,0,0-.126.934v6.428H13.262s.05-10.431,0-11.51h3.826v1.63a3.8,3.8,0,0,1,3.448-1.9c2.517,0,4.4,1.645,4.4,5.181Zm0,0"></path></svg>