<svg width="522" height="176" viewBox="0 0 522 176" fill="none" xmlns="http://www.w3.org/2000/svg">
<g clip-path="url(#clip0_332_48)">
<path d="M246.66 65.82H206.96V0H198.62V73.38H246.66V65.82Z" fill="black"></path>
<path d="M308.79 0H280.99V73.38H308.74C327.06 73.38 339.37 58.62 339.37 36.64C339.37 14.66 327.08 0 308.79 0ZM331.04 36.64C331.04 54.09 322.08 65.82 308.74 65.82H289.32V7.55H308.78C322.09 7.55 331.03 19.24 331.03 36.63L331.04 36.64Z" fill="black"></path>
<path d="M224.44 132.11C214.29 129.81 204.71 127.63 204.71 118.83C204.71 111.45 211.98 106.49 222.81 106.49C233.64 106.49 240.96 112.17 240.96 120.63V121.38H249.3V120.63C249.3 107.65 238.66 98.9299 222.82 98.9299C206.98 98.9299 196.39 106.92 196.39 118.82C196.39 133.67 210.71 137.05 222.22 139.77C232.92 142.22 243.02 144.53 243.02 154.47C243.02 162.49 234.9 167.88 222.82 167.88C210.74 167.88 202.62 161.27 202.62 151.44V150.69H194.29V151.44C194.29 165.79 205.76 175.43 222.82 175.43C239.88 175.43 251.35 167 251.35 154.46C251.35 138.4 236.44 134.91 224.45 132.1L224.44 132.11Z" fill="black"></path>
<path d="M279.08 108.05H303.55V173.88H311.88V108.05H336.35V100.5H279.08V108.05Z" fill="black"></path>
<path d="M414.98 140.36C421.44 137.08 425.25 130.25 425.25 121.76C425.25 109.05 417.12 100.5 405.02 100.5H370.58V173.88H378.92V142.97H403.61C412.68 142.97 414.96 151.61 415.51 156.76L417.44 173.88H425.64L423.69 156.59C422.79 148.68 419.86 143.23 414.99 140.36H414.98ZM416.91 121.76C416.91 129.93 412.15 135.41 405.06 135.41H378.91V108.05H405.02C412.14 108.05 416.92 113.56 416.92 121.75L416.91 121.76Z" fill="black"></path>
<path d="M491.78 100.5H483.93L454.27 173.88H462.78L487.86 111.7L512.94 173.88H521.44L491.78 100.5Z" fill="black"></path>
<path d="M129.125 174H143.175L158 88.9336H143.984L0 174H14.0622L146.064 99.7031L129.125 174Z" fill="#92928F"></path>
<path d="M79.5662 26.9248L78.9076 25.3945H64.2792L0 174H14.4435L71.5934 41.601L128.743 174H143.175L79.5662 26.9248Z" fill="black"></path>
</g>
<defs>
<clipPath id="clip0_332_48">
<rect width="522" height="176" fill="black"></rect>
</clipPath>
</defs>
</svg>