<svg width="20" height="20" viewBox="0 0 20 20" fill="none" xmlns="http://www.w3.org/2000/svg">
<g id="calendar-month-outline">
<g id="Vector">
<path d="M17.0273 3.85297H15.5273V3.10297C15.5273 2.90405 15.4483 2.71329 15.3077 2.57264C15.167 2.43198 14.9763 2.35297 14.7773 2.35297C14.5784 2.35297 14.3877 2.43198 14.247 2.57264C14.1064 2.71329 14.0273 2.90405 14.0273 3.10297V3.85297H11.7773V3.10297C11.7773 2.90405 11.6983 2.71329 11.5577 2.57264C11.417 2.43198 11.2263 2.35297 11.0273 2.35297C10.8284 2.35297 10.6377 2.43198 10.497 2.57264C10.3564 2.71329 10.2773 2.90405 10.2773 3.10297V3.85297H8.02734V3.10297C8.02734 2.90405 7.94833 2.71329 7.80767 2.57264C7.66702 2.43198 7.47626 2.35297 7.27734 2.35297C7.07843 2.35297 6.88767 2.43198 6.74701 2.57264C6.60636 2.71329 6.52734 2.90405 6.52734 3.10297V3.85297H5.02734C4.62952 3.85297 4.24799 4.011 3.96668 4.29231C3.68538 4.57361 3.52734 4.95514 3.52734 5.35297V15.853C3.52734 16.2508 3.68538 16.6323 3.96668 16.9136C4.24799 17.1949 4.62952 17.353 5.02734 17.353H17.0273C17.4252 17.353 17.8067 17.1949 18.088 16.9136C18.3693 16.6323 18.5273 16.2508 18.5273 15.853V5.35297C18.5273 4.95514 18.3693 4.57361 18.088 4.29231C17.8067 4.011 17.4252 3.85297 17.0273 3.85297ZM6.52734 5.35297C6.52734 5.55188 6.60636 5.74264 6.74701 5.8833C6.88767 6.02395 7.07843 6.10297 7.27734 6.10297C7.47626 6.10297 7.66702 6.02395 7.80767 5.8833C7.94833 5.74264 8.02734 5.55188 8.02734 5.35297H10.2773C10.2773 5.55188 10.3564 5.74264 10.497 5.8833C10.6377 6.02395 10.8284 6.10297 11.0273 6.10297C11.2263 6.10297 11.417 6.02395 11.5577 5.8833C11.6983 5.74264 11.7773 5.55188 11.7773 5.35297H14.0273C14.0273 5.55188 14.1064 5.74264 14.247 5.8833C14.3877 6.02395 14.5784 6.10297 14.7773 6.10297C14.9763 6.10297 15.167 6.02395 15.3077 5.8833C15.4483 5.74264 15.5273 5.55188 15.5273 5.35297H17.0273V6.85297H5.02734V5.35297H6.52734ZM5.02734 15.853V8.35297H17.0273V15.853H5.02734Z" fill="white"></path>
<path d="M7.65234 9.85297H6.90234C6.69524 9.85297 6.52734 10.0209 6.52734 10.228V10.978C6.52734 11.1851 6.69524 11.353 6.90234 11.353H7.65234C7.85945 11.353 8.02734 11.1851 8.02734 10.978V10.228C8.02734 10.0209 7.85945 9.85297 7.65234 9.85297Z" fill="white"></path>
<path d="M7.65234 12.853H6.90234C6.69524 12.853 6.52734 13.0209 6.52734 13.228V13.978C6.52734 14.1851 6.69524 14.353 6.90234 14.353H7.65234C7.85945 14.353 8.02734 14.1851 8.02734 13.978V13.228C8.02734 13.0209 7.85945 12.853 7.65234 12.853Z" fill="white"></path>
<path d="M11.4023 9.85297H10.6523C10.4452 9.85297 10.2773 10.0209 10.2773 10.228V10.978C10.2773 11.1851 10.4452 11.353 10.6523 11.353H11.4023C11.6095 11.353 11.7773 11.1851 11.7773 10.978V10.228C11.7773 10.0209 11.6095 9.85297 11.4023 9.85297Z" fill="white"></path>
<path d="M11.4023 12.853H10.6523C10.4452 12.853 10.2773 13.0209 10.2773 13.228V13.978C10.2773 14.1851 10.4452 14.353 10.6523 14.353H11.4023C11.6095 14.353 11.7773 14.1851 11.7773 13.978V13.228C11.7773 13.0209 11.6095 12.853 11.4023 12.853Z" fill="white"></path>
<path d="M15.1523 9.85297H14.4023C14.1952 9.85297 14.0273 10.0209 14.0273 10.228V10.978C14.0273 11.1851 14.1952 11.353 14.4023 11.353H15.1523C15.3595 11.353 15.5273 11.1851 15.5273 10.978V10.228C15.5273 10.0209 15.3595 9.85297 15.1523 9.85297Z" fill="white"></path>
<path d="M15.1523 12.853H14.4023C14.1952 12.853 14.0273 13.0209 14.0273 13.228V13.978C14.0273 14.1851 14.1952 14.353 14.4023 14.353H15.1523C15.3595 14.353 15.5273 14.1851 15.5273 13.978V13.228C15.5273 13.0209 15.3595 12.853 15.1523 12.853Z" fill="white"></path>
</g>
</g>
</svg>