<svg width="6" height="11" viewBox="0 0 6 11" fill="none" xmlns="http://www.w3.org/2000/svg">
<path d="M0.229439 0.242127C0.0825294 0.397208 7.24453e-09 0.607514 9.85947e-09 0.826798C1.24744e-08 1.04608 0.0825294 1.25639 0.229439 1.41147L4.10846 5.50499L0.229439 9.59852C0.0866929 9.75449 0.00770658 9.96338 0.00949204 10.1802C0.0112775 10.397 0.0936919 10.6045 0.238985 10.7578C0.384278 10.9111 0.580826 10.9981 0.786294 11C0.991762 11.0019 1.18971 10.9185 1.33751 10.7679L5.77056 6.08966C5.91747 5.93458 6 5.72428 6 5.50499C6 5.28571 5.91747 5.0754 5.77056 4.92032L1.33751 0.242127C1.19055 0.0870932 0.991266 5.97286e-08 0.783473 6.22065e-08C0.57568 6.46844e-08 0.376394 0.0870932 0.229439 0.242127Z" fill="#67BE83"></path>
</svg>