<svg width="13" height="8" viewBox="0 0 13 8" fill="none" xmlns="http://www.w3.org/2000/svg">
<path id="Vector" d="M0.28615 7.32802C0.469427 7.49942 0.717971 7.5957 0.977125 7.5957C1.23628 7.5957 1.48482 7.49942 1.6681 7.32802L6.5059 2.8025L11.3437 7.32802C11.528 7.49456 11.7749 7.58671 12.0312 7.58463C12.2874 7.58255 12.5325 7.4864 12.7137 7.31689C12.895 7.14738 12.9977 6.91807 13 6.67836C13.0022 6.43865 12.9037 6.20771 12.7257 6.03528L7.19688 0.863382C7.0136 0.691987 6.76505 0.595703 6.5059 0.595703C6.24675 0.595703 5.9982 0.691987 5.81493 0.863382L0.28615 6.03528C0.102928 6.20673 0 6.43923 0 6.68165C0 6.92408 0.102928 7.15658 0.28615 7.32802Z" fill="#67BE83"></path>
</svg>