<svg width="15" height="15" viewBox="0 0 15 15" fill="none" xmlns="http://www.w3.org/2000/svg">
<g id="connect 1" clip-path="url(#clip0_4310_5488)">
<g id="Group">
<path id="Vector" d="M11.5649 0.0440197C10.4047 0.263746 9.51407 1.10457 9.2211 2.25593C9.13028 2.61922 9.13321 3.24617 9.22696 3.62703C9.26505 3.77644 9.28555 3.90828 9.27384 3.92C9.26505 3.92879 8.56778 4.35652 7.72696 4.86629L6.19766 5.79207L5.94571 5.55476C5.45059 5.08308 4.88223 4.78425 4.22013 4.6407C4.03848 4.59968 3.84805 4.58797 3.517 4.58797C3.18595 4.58797 2.99552 4.59968 2.81387 4.6407C2.1254 4.79011 1.53653 5.10945 1.03848 5.6075C0.540437 6.10554 0.218172 6.69734 0.0716875 7.38289C0.00430466 7.69343 -0.0044844 8.41414 0.057039 8.71589C0.197664 9.43367 0.528719 10.0548 1.03848 10.5645C1.53653 11.0626 2.09903 11.3673 2.81973 11.5343C3.11563 11.6016 3.91251 11.6016 4.21427 11.5343C5.04923 11.3438 5.76407 10.9073 6.24747 10.2862C6.33243 10.1807 6.39981 10.0899 6.40274 10.087C6.40567 10.0811 9.14786 11.3497 9.19766 11.379C9.20938 11.3878 9.20352 11.4903 9.18302 11.6075C9.02481 12.5011 9.34122 13.4737 10.0063 14.1358C10.3725 14.502 10.8822 14.7921 11.3861 14.918C11.7348 15.0059 12.3559 15.0118 12.7016 14.9298C13.7885 14.6778 14.6498 13.8341 14.9193 12.7559C15.0072 12.4073 15.0131 11.7862 14.9311 11.4405C14.6322 10.1368 13.5395 9.2198 12.2035 9.14949C11.3568 9.10554 10.5805 9.41902 9.95645 10.0548L9.70157 10.3155L9.13614 10.0548C8.82559 9.91121 8.20743 9.6241 7.76505 9.41902C7.32266 9.21687 6.95059 9.03816 6.93595 9.02644C6.92423 9.01472 6.93595 8.90632 6.96231 8.78621C6.99747 8.63679 7.01212 8.42586 7.01505 8.10066C7.01798 7.6114 6.97989 7.34187 6.85391 6.98152C6.82462 6.8907 6.79825 6.81453 6.79825 6.80867C6.79825 6.80281 7.49259 6.378 9.04532 5.43757L9.90079 4.91902L10.1322 5.11824C11.0551 5.91511 12.309 6.08211 13.3695 5.5489C13.8119 5.32625 14.2133 4.98347 14.474 4.60261C15.6342 2.89168 14.7582 0.580153 12.7602 0.0850353C12.4467 0.00593376 11.8695 -0.0145741 11.5649 0.0440197ZM12.4936 1.23054C12.8246 1.3155 13.0502 1.44441 13.3022 1.69929C13.557 1.95125 13.6859 2.17683 13.7709 2.50789C13.8764 2.92097 13.8207 3.37214 13.6186 3.75886C13.4897 3.9991 13.1352 4.35359 12.9008 4.47664C12.5111 4.68172 12.0629 4.73445 11.6498 4.62898C11.3188 4.54402 11.0932 4.41511 10.8412 4.16023C10.5863 3.90828 10.4574 3.68269 10.3725 3.35164C10.267 2.93855 10.3197 2.49031 10.5248 2.10066C10.6479 1.86336 11.0053 1.50593 11.2426 1.38289C11.6322 1.17781 12.0805 1.12507 12.4936 1.23054ZM4.07364 5.80964C4.68595 5.97664 5.14884 6.31062 5.48282 6.82039C5.74063 7.21296 5.8461 7.57625 5.8461 8.08601C5.8461 8.74812 5.62638 9.28132 5.16934 9.73836C4.26114 10.6466 2.79044 10.6524 1.8793 9.753C1.40762 9.28718 1.1879 8.75691 1.1879 8.08601C1.1879 7.57625 1.29337 7.21589 1.55411 6.81453C1.89981 6.28718 2.4418 5.91804 3.07755 5.78328C3.31192 5.73347 3.84512 5.74812 4.07364 5.80964ZM12.4936 10.3712C12.8246 10.4561 13.0502 10.585 13.3022 10.8399C13.557 11.0919 13.6859 11.3175 13.7709 11.6485C13.8764 12.0616 13.8207 12.5128 13.6186 12.8995C13.4897 13.1397 13.1352 13.4942 12.9008 13.6173C12.5111 13.8223 12.0629 13.8751 11.6498 13.7696C11.3188 13.6846 11.0932 13.5557 10.8412 13.3009C10.5863 13.0489 10.4574 12.8233 10.3725 12.4923C10.267 12.0792 10.3197 11.6309 10.5248 11.2413C10.6479 11.004 11.0053 10.6466 11.2426 10.5235C11.6322 10.3184 12.0805 10.2657 12.4936 10.3712Z" fill="#67BE83"></path>
</g>
</g>
<defs>
<clipPath id="clip0_4310_5488">
<rect width="15" height="15" fill="white"></rect>
</clipPath>
</defs>
</svg>