<svg width="19" height="19" viewBox="0 0 20 20" fill="none" xmlns="http://www.w3.org/2000/svg">
<path id="Vector" d="M13.1146 0.681793L19.3104 6.94301C19.3704 7.00343 19.4181 7.07587 19.4506 7.156C19.4832 7.23613 19.5 7.3223 19.5 7.40937C19.5 7.49643 19.4832 7.5826 19.4506 7.66273C19.4181 7.74286 19.3704 7.8153 19.3104 7.87572L13.1146 14.1369C13.058 14.1953 12.9909 14.2413 12.9171 14.2725C12.8434 14.3036 12.7645 14.3192 12.685 14.3183C12.5207 14.3183 12.3631 14.2501 12.2469 14.1286C12.1307 14.0071 12.0655 13.8424 12.0655 13.6706V10.4407C6.53056 10.6738 4.20095 13.9124 4.10181 14.0506C4.02295 14.1591 3.91408 14.2397 3.78997 14.2814C3.66585 14.3231 3.53247 14.3239 3.40789 14.2838C3.28362 14.2419 3.17517 14.1601 3.09803 14.05C3.02088 13.9398 2.97899 13.8071 2.97831 13.6706C2.97831 6.74438 8.42234 4.61988 12.0655 4.40398V1.14815C12.0657 1.02076 12.1019 0.896288 12.1695 0.790298C12.2371 0.684307 12.3331 0.601505 12.4455 0.55225C12.5567 0.502087 12.6797 0.48762 12.7989 0.510684C12.918 0.533749 13.0279 0.593306 13.1146 0.681793ZM13.3046 9.78431V12.1247L17.9886 7.40937L13.3046 2.67675V5.03442C13.3025 5.20551 13.2365 5.36896 13.1208 5.48995C13.005 5.61094 12.8487 5.6799 12.685 5.68213C11.8837 5.68213 5.37401 5.87213 4.34965 11.9693C6.72554 10.0347 9.67513 9.03228 12.685 9.1366C12.8487 9.13884 13.005 9.2078 13.1208 9.32878C13.2365 9.44977 13.3025 9.61322 13.3046 9.78431ZM16.7933 14.5109C16.9088 14.3898 17.065 14.3207 17.2286 14.3183C17.3923 14.3205 17.5486 14.3895 17.6644 14.5105C17.7801 14.6315 17.846 14.7949 17.8482 14.966V15.3978C17.8482 16.4858 17.4348 17.5292 16.6989 18.2985C15.963 19.0678 14.9649 19.5 13.9242 19.5H4.424C3.38329 19.5 2.3852 19.0678 1.64931 18.2985C0.91342 17.5292 0.5 16.4858 0.5 15.3978V5.46623C0.5 4.37826 0.91342 3.33486 1.64931 2.56555C2.3852 1.79624 3.38329 1.36405 4.424 1.36405H8.14146C8.30579 1.36405 8.46338 1.43229 8.57957 1.55376C8.69577 1.67523 8.76104 1.83998 8.76104 2.01176C8.76104 2.18355 8.69577 2.34829 8.57957 2.46976C8.46338 2.59123 8.30579 2.65948 8.14146 2.65948H4.424C3.7126 2.66175 3.03097 2.9582 2.52793 3.48407C2.0249 4.00995 1.74134 4.72253 1.73916 5.46623V15.3978C1.74134 16.1415 2.0249 16.8541 2.52793 17.38C3.03097 17.9059 3.7126 18.2023 4.424 18.2046H13.9242C14.6356 18.2023 15.3172 17.9059 15.8203 17.38C16.3233 16.8541 16.6069 16.1415 16.609 15.3978V14.966C16.6114 14.795 16.6775 14.6317 16.7933 14.5109Z" fill="#4D4D4D"></path>
</svg>