<svg width="37" height="39" viewBox="0 0 37 39" fill="none" xmlns="http://www.w3.org/2000/svg">
<path id="Path 27" d="M32.5595 13.6081C33.6529 12.988 34.7464 12.3679 35.8399 11.7481C36.7352 11.2397 36.9723 10.1275 36.5423 9.23041C36.5078 9.15939 36.4736 9.08742 36.4392 9.0164C36.4049 8.93008 36.3647 8.84616 36.3191 8.7652C36.2618 8.64481 36.1928 8.5303 36.1131 8.42329C31.3616 0.50502 21.2687 -2.45768 13.2415 2.25861C11.2746 3.41716 9.56133 4.95682 8.20311 6.78641C6.84488 8.616 5.86933 10.6983 5.33422 12.91C4.78233 15.0881 4.65527 17.3514 4.95993 19.5772C5.19344 21.2371 5.73661 22.7059 6.37668 24.1769L1.60097 26.8634C1.18338 27.1146 0.878035 27.5152 0.747471 27.9832C0.616907 28.4511 0.670997 28.9511 0.898651 29.3806C3.19282 33.5782 6.65362 36.6734 11.2372 37.9959C13.3556 38.6125 15.5776 38.7953 17.7689 38.5334C19.9603 38.2714 22.0756 37.5701 23.9872 36.4718C25.9393 35.371 27.653 33.8964 29.0297 32.133C30.4063 30.3695 31.4185 28.3522 32.0079 26.1974C33.133 22.1637 32.7222 18.1597 31.0995 14.441" fill="#D5D5D5"></path>
</svg>