<svg width="24" height="24" viewBox="0 0 24 24" fill="none" xmlns="http://www.w3.org/2000/svg">
<g id="Star">
<mask id="mask0_1620_10880" style="mask-type:alpha" maskUnits="userSpaceOnUse" x="3" y="3" width="18" height="18">
<path id="Vector" d="M12 18.0745L16.3649 20.8368C17.1642 21.343 18.1424 20.5947 17.932 19.6482L16.7751 14.4537L20.6351 10.9541C21.3398 10.3157 20.9611 9.10517 20.0356 9.02813L14.9555 8.57692L12.9676 3.66857C12.61 2.77714 11.39 2.77714 11.0324 3.66857L9.04451 8.56591L3.96443 9.01713C3.03887 9.09416 2.66023 10.3047 3.36492 10.943L7.22494 14.4427L6.06799 19.6372C5.85763 20.5837 6.83578 21.332 7.63513 20.8258L12 18.0745Z" fill="#67BE83"></path>
</mask>
<g mask="url(#mask0_1620_10880)">
<path id="Vector_2" d="M12 18.0745L16.3649 20.8368C17.1642 21.343 18.1424 20.5947 17.932 19.6482L16.7751 14.4537L20.6351 10.9541C21.3398 10.3157 20.9611 9.10517 20.0356 9.02813L14.9555 8.57692L12.9676 3.66857C12.61 2.77714 11.39 2.77714 11.0324 3.66857L9.04451 8.56591L3.96443 9.01713C3.03887 9.09416 2.66023 10.3047 3.36492 10.943L7.22494 14.4427L6.06799 19.6372C5.85763 20.5837 6.83578 21.332 7.63513 20.8258L12 18.0745Z" fill="#67BE83"></path>
<rect id="Rectangle 3182" x="18" y="3" width="6" height="19" fill="white"></rect>
</g>
</g>
</svg>