<svg width="31" height="31" viewBox="0 0 31 31" fill="none" xmlns="http://www.w3.org/2000/svg">
<circle cx="15.5" cy="15.5" r="15.5" fill="#67BE83"></circle>
<path d="M22.0764 8.5L17.0829 13.8947L16.8 14.2003L17.0494 14.5338L22.9591 22.4355H19.4594L15.2237 16.7721L14.8642 16.2914L14.4564 16.7319L9.17684 22.4355H9.14417L14.5668 16.5775L14.8497 16.2719L14.6003 15.9384L9.03722 8.5H12.5369L16.4259 13.7L16.7855 14.1808L17.1933 13.7402L22.0438 8.5H22.0764ZM10.0909 8.52781H9.09254L9.69046 9.32728L19.3233 22.207L19.4733 22.4075H19.7237H21.9051H22.9035L22.3055 21.6081L12.6727 8.72835L12.5227 8.52781H12.2723H10.0909Z" stroke="black"></path>
</svg>