<svg width="17" height="15" viewBox="0 0 17 15" fill="none" xmlns="http://www.w3.org/2000/svg">
<path d="M0.812423 14.3869C0.581794 14.1114 0.460361 13.7638 0.474839 13.4203C0.489318 13.0769 0.638521 12.7658 0.889626 12.5556L11.9823 3.26713L4.42282 2.6694C4.08318 2.6406 3.75635 2.47684 3.51373 2.21388C3.2711 1.95092 3.1324 1.61015 3.12793 1.266C3.12345 0.92184 3.25357 0.602276 3.48984 0.377111C3.72612 0.151946 4.04935 0.0394798 4.38894 0.064279L15.313 0.928043C15.4938 0.942318 15.6731 0.995102 15.8392 1.08295C16.0053 1.17079 16.1543 1.29172 16.2767 1.43782C16.399 1.58393 16.4919 1.75193 16.5492 1.93085C16.6065 2.10976 16.627 2.29556 16.6092 2.4761L15.5406 13.382C15.5249 13.5513 15.4761 13.7128 15.3969 13.8571C15.3177 14.0014 15.2096 14.1257 15.079 14.2228C14.9483 14.3199 14.7976 14.388 14.6355 14.4231C14.4734 14.4582 14.3032 14.4596 14.1346 14.4272C13.9659 14.3949 13.8022 14.3294 13.6529 14.2345C13.5036 14.1397 13.3716 14.0174 13.2644 13.8746C13.1573 13.7318 13.0772 13.5714 13.0287 13.4026C12.9802 13.2338 12.9643 13.06 12.9819 12.891L13.7214 5.34412L2.62881 14.6326C2.3777 14.8428 2.04526 14.9351 1.70463 14.889C1.36399 14.8429 1.04305 14.6623 0.812423 14.3869Z" fill="#67BE83"></path>
</svg>