<svg width="14" height="14" viewBox="0 0 14 14" fill="none" xmlns="http://www.w3.org/2000/svg">
<path id="Vector" d="M0.378177 11.6334C0.136084 11.8754 7.86347e-05 12.2038 7.86197e-05 12.5462C7.86048e-05 12.8885 0.136084 13.2169 0.378177 13.459C0.620269 13.7011 0.948617 13.8371 1.29099 13.8371C1.63336 13.8371 1.96171 13.7011 2.2038 13.459L6.76786 8.89492L11.3319 13.459C11.574 13.7011 11.9024 13.8371 12.2447 13.8371C12.5871 13.8371 12.9155 13.7011 13.1575 13.459C13.3996 13.2169 13.5356 12.8885 13.5356 12.5462C13.5356 12.2038 13.3996 11.8755 13.1575 11.6334L8.59348 7.0693L13.1575 2.50524C13.3996 2.26314 13.5356 1.9348 13.5356 1.59242C13.5356 1.25005 13.3996 0.921706 13.1575 0.679613C12.9155 0.43752 12.5871 0.301514 12.2447 0.301514C11.9024 0.301514 11.574 0.43752 11.3319 0.679613L6.76786 5.24367L2.2038 0.679613C1.96171 0.43752 1.63336 0.301513 1.29099 0.301513C0.948618 0.301513 0.62027 0.43752 0.378178 0.679613C0.136085 0.921706 7.81598e-05 1.25005 7.81449e-05 1.59242C7.81299e-05 1.93479 0.136084 2.26314 0.378178 2.50524L4.94224 7.0693L0.378177 11.6334Z" fill="#67BE83"></path>
</svg>